<svg version="1.1" xmlns="http://www.w3.org/2000/svg" xmlns:xlink="http://www.w3.org/1999/xlink" width="611.5" height="372"><g transform="translate(2.5,3)"><g data-paper-data="{&quot;isPaintingLayer&quot;:true}" fill="none" fill-rule="nonzero" stroke="none" stroke-width="none" stroke-linecap="none" stroke-linejoin="miter" stroke-miterlimit="10" stroke-dasharray="" stroke-dashoffset="0" font-family="none" font-weight="none" font-size="none" text-anchor="none" style="mix-blend-mode: normal"><path d="M1.3543,267v-180h477.6457v180z" data-paper-data="{&quot;origPos&quot;:null}" fill="#979797" stroke="#000000" stroke-width="2" stroke-linecap="butt"/><path d="M0,369v-101h519v101z" fill="#925805" stroke="none" stroke-width="0" stroke-linecap="butt"/><path d="M-2,86v-89h611v89z" fill="#e7cba3" stroke="none" stroke-width="0" stroke-linecap="butt"/><path d="M0,6h510" data-paper-data="{&quot;origPos&quot;:null}" fill="none" stroke="#000000" stroke-width="5" stroke-linecap="round"/><path d="M261,330.5c0,14.08326 -12.36813,25.5 -27.625,25.5c-15.25687,0 -27.625,-11.41674 -27.625,-25.5c0,-14.08326 12.36813,-25.5 27.625,-25.5c15.25687,0 27.625,11.41674 27.625,25.5z" data-paper-data="{&quot;origPos&quot;:null}" fill="#ffffff" stroke="none" stroke-width="0" stroke-linecap="butt"/><path d="M251.65,330.925c0,9.15412 -8.22314,16.575 -18.36689,16.575c-10.14375,0 -18.36689,-7.42088 -18.36689,-16.575c0,-9.15412 8.22314,-16.575 18.36689,-16.575c10.14375,0 18.36689,7.42088 18.36689,16.575z" data-paper-data="{&quot;origPos&quot;:null}" fill="none" stroke="#000000" stroke-width="1" stroke-linecap="butt"/><path d="M324,330.5c0,14.08326 -12.36813,25.5 -27.625,25.5c-15.25687,0 -27.625,-11.41674 -27.625,-25.5c0,-14.08326 12.36813,-25.5 27.625,-25.5c15.25687,0 27.625,11.41674 27.625,25.5z" data-paper-data="{&quot;origPos&quot;:null}" fill="#ffffff" stroke="none" stroke-width="0" stroke-linecap="butt"/><path d="M314.65,330.925c0,9.15412 -8.22313,16.575 -18.36689,16.575c-10.14375,0 -18.36689,-7.42088 -18.36689,-16.575c0,-9.15412 8.22314,-16.575 18.3669,-16.575c10.14376,0 18.36689,7.42088 18.36689,16.575z" data-paper-data="{&quot;origPos&quot;:null}" fill="none" stroke="#000000" stroke-width="1" stroke-linecap="butt"/><path d="M199,330.5c0,14.08326 -12.36813,25.5 -27.625,25.5c-15.25687,0 -27.625,-11.41674 -27.625,-25.5c0,-14.08326 12.36813,-25.5 27.625,-25.5c15.25687,0 27.625,11.41674 27.625,25.5z" data-paper-data="{&quot;origPos&quot;:null}" fill="#ffffff" stroke="none" stroke-width="0" stroke-linecap="butt"/><path d="M189.65,330.925c0,9.15412 -8.22313,16.575 -18.36689,16.575c-10.14375,0 -18.36689,-7.42088 -18.36689,-16.575c0,-9.15412 8.22314,-16.575 18.3669,-16.575c10.14375,0 18.36689,7.42088 18.36689,16.575z" data-paper-data="{&quot;origPos&quot;:null}" fill="none" stroke="#000000" stroke-width="1" stroke-linecap="butt"/><path d="M329.70779,344.27253c-0.54687,0.28363 -1.09824,0.55895 -1.65341,0.82659c-2.40613,2.06482 -5.04391,3.83479 -8.14126,4.72712c-0.92745,0.26719 -1.8774,0.44204 -2.83425,0.58318c-0.23024,0.2168 -0.52628,0.47478 -0.89168,0.77777c-2.60768,2.16221 -4.76954,3.36228 -7.92019,4.61379c-1.3208,0.52465 -2.13187,0.679 -3.22917,0.7727c-0.32003,0.2272 -0.65624,0.45232 -0.85064,0.61351c-0.90397,0.74954 -1.87777,1.41102 -2.83356,2.09326c-3.55252,2.53576 -7.64992,3.16636 -11.85363,3.46956c-2,0 -4,0 -6,0c-0.5,0 -1.24079,0.42756 -1.5,0c-2.19528,-3.62106 -4.29982,-7.33783 -5.98978,-11.22285c-7.71324,2.03369 -10.31119,-5.76016 -10.31119,-5.76016c-1.34992,-4.04975 -1.44902,-8.0307 -1.44902,-12.26699c0,-1.2738 -0.41451,-4.18179 0,-5.5c0.52717,-1.67648 1.16688,-3.31706 1.85452,-4.93603c0.02977,-0.35984 0.10555,-0.82135 0.14548,-1.06397c0.2366,-1.43775 0.59395,-2.85383 0.94902,-4.26699c0.01915,-0.07623 0.04121,-0.15163 0.06525,-0.22646c-0.00472,-0.00188 -0.00948,-0.00406 -0.01427,-0.00655c-0.4438,-0.2303 -0.14998,-1.02303 0,-1.5c0.57186,-1.81862 1.27617,-3.595 2.03042,-5.34736c0.454,-6.35751 5.92107,-12.49821 11.80646,-14.47888c2.34026,-0.78759 4.84809,-0.99274 7.1971,-1.75384c0.69498,-0.22518 1.09073,-1.08331 1.8029,-1.24616c2.10543,-0.48143 4.26486,-0.70111 6.41312,-0.92376c2.70469,-0.28032 5.84328,0.58126 8.5,0c0.00962,-0.00211 0.01802,-0.00393 0.02525,-0.00549c-0.22301,0.04518 -1.42658,0.27218 -1.29224,-0.04549c0.20528,-0.48542 0.97995,-0.41442 1.5,-0.5c6.21204,-1.02226 9.10421,-0.31795 15.12062,2.02054c0.59729,0.3982 1.22203,0.73512 1.86504,1.03111c1.88782,-0.2802 3.81113,-0.44982 5.78133,-0.50067c1.33289,-0.0344 2.74521,-0.45088 4,0c3.04934,1.0957 5.73441,3.01871 8.60161,4.52806c3.40664,2.83887 5.59019,6.98098 7.52256,10.97227c0.78222,1.61566 1.59198,3.25193 2,5c0.70243,3.00938 1.44425,6.26974 0.62583,9.24967c-0.91878,3.34538 -1.74067,7.10302 -4.24694,9.50184c-5.06233,4.84528 -10.62554,8.37766 -16.79527,10.77069z" fill="#925805" stroke="none" stroke-width="0.5" stroke-linecap="butt"/><path d="M203.75,334c0,2.53283 -1.07617,4.8143 -2.79619,6.41212c0.91964,2.13649 2.45823,7.54482 -3.45197,11.09094c-3.6591,2.19546 -6.60441,1.53576 -8.66188,0.28357c-0.15133,0.34172 -0.39761,0.75973 -0.53898,0.98036c-1.47607,2.30363 -3.17917,4.48557 -5.11379,6.42019l0.96786,-4.01578c0,0 -2.20669,5.67434 -7.6719,5.7158l-0.32006,2.26346c0,0 -3.15066,8.16308 -11.31374,5.01242c-4.8497,-1.87182 -5.70614,-5.5128 -5.60238,-8.16015c-1.46188,1.09707 -3.27851,1.74707 -5.24696,1.74707c-2.1078,0 -4.04152,-0.74529 -5.55203,-1.98672c-3.13616,-0.27186 -5.44785,-2.22873 -9.72841,-5.40965c-0.48233,-0.35842 -0.91483,-0.90514 -1,-1.5c-0.43157,-3.01442 -0.51465,-6.07547 -0.52054,-9.12062c-0.00271,-1.40342 0.66569,-2.72008 1.65514,-3.91977c-0.88693,-0.89654 -1.68152,-1.77504 -2.35416,-2.56323c-0.54096,-0.63388 -1.33673,-1.18282 -1.5,-2c-0.71974,-3.60251 -2.77529,-8.3015 -0.30098,-11.01699c1.97667,-2.16934 4.14242,-4.16947 6.38786,-6.05924c1.27271,-1.07112 2.8688,-1.61197 4.50624,-2.07073c0.64049,-0.67095 1.30889,-1.30257 2.0041,-1.90513c0.39043,-1.31335 0.84562,-2.60883 1.3763,-3.88221l-0.25396,-0.16931l1.92472,-2.88708c1.33721,-2.07055 3.52486,-3.54036 6.06884,-3.91533l-0.99356,-1.49034c0,0 -4.80294,-7.52139 2.57263,-12.2292c7.37557,-4.70781 11.98825,2.52194 11.98825,2.52194l1,1.5c0.37262,0.55893 0.75039,1.11346 1.13251,1.66425c0.78714,-4.02408 4.33248,-7.06062 8.58705,-7.06062c3.87502,0 7.16171,2.51893 8.31199,6.00869c4.4438,-0.49744 6.84653,1.92541 8.08327,4.05992l1.88517,2.82776l-0.64225,0.42817l0.94189,4.70945l-0.21776,0.04355c0.67263,6.08532 0.35594,12.00407 -0.598,18.12171c0.6137,0.747 1.10608,1.59745 1.44702,2.52124c2.14725,1.59449 3.53866,4.14951 3.53866,7.02951z" fill="#925805" stroke="none" stroke-width="0.5" stroke-linecap="butt"/></g></g></svg>