<svg version="1.1" xmlns="http://www.w3.org/2000/svg" xmlns:xlink="http://www.w3.org/1999/xlink" width="511" height="131.5"><g transform="translate(-3.5,-75.5)"><g data-paper-data="{&quot;isPaintingLayer&quot;:true}" fill="none" fill-rule="nonzero" stroke="none" stroke-width="none" stroke-linecap="none" stroke-linejoin="miter" stroke-miterlimit="10" stroke-dasharray="" stroke-dashoffset="0" font-family="none" font-weight="none" font-size="none" text-anchor="none" style="mix-blend-mode: normal"><path d="M22,207v-130h117v130z" data-paper-data="{&quot;origPos&quot;:null}" fill="#67ff66" stroke="none" stroke-width="0" stroke-linecap="butt"/><path d="M6,78h506" data-paper-data="{&quot;origPos&quot;:null}" fill="none" stroke="#000000" stroke-width="5" stroke-linecap="round"/><path d="M123.99995,108.01031c-0.01031,0.99995 -1.01026,0.98964 -1.01026,0.98964l0.01492,-0.93649c-2.93167,1.07534 -7.72744,4.0249 -10.69544,2.04567c-0.50673,-0.33791 -1.16742,-1.90379 -1.56101,-2.42251c-1.20127,-1.58317 -2.43599,-3.09969 -3.74283,-4.59702c-0.77342,-1.50732 -3.37418,-1.08076 -4.78108,-1.07212c-5.33343,0.03274 -10.40534,1.15117 -15.63525,2.12542c-3.43633,0.64013 -7.76457,2.42354 -11.19672,2.39985c-3.67696,-0.02538 -6.47093,-2.5337 -10.14009,-2.56951c-3.79789,-0.03993 -7.10241,-1.30462 -10.70673,-1.93941c-3.20595,-0.56463 -7.54127,0.98343 -10.69873,1.5862c-3.60163,0.68756 -7.20325,1.37512 -10.80488,2.06268c-0.7764,0.14822 -2.31085,0.73195 -3.0819,0.4583c-0.16086,-0.05709 -0.02903,-0.57727 -0.1711,-0.48265c-1.75828,1.17095 -1.28451,2.34164 -3.78885,2.34164c0,0 -1,0 -1,-1c0,-1 1,-1 1,-1c0.66667,0 1.4329,0.35049 2,0c0.15958,-0.09862 -0.44721,-0.15405 -0.44721,-0.34164c0,-0.33333 0.16977,-0.70966 0.44721,-0.89443c0.53441,-0.3559 1.20039,-0.46662 1.82429,-0.61832c4.43649,-1.0787 9.14416,-1.63043 13.64741,-2.49011c3.25193,-0.6208 7.72653,-2.20253 11.02763,-1.62115c3.63974,0.64103 6.976,1.90503 10.77238,1.93897c3.93651,0.03842 6.8658,2.6349 10.7205,2.66151c0.76585,0.00529 2.38501,-0.94284 3.24529,-1.1511c2.29165,-0.55476 4.66706,-0.87518 6.98524,-1.30702c4.98471,-0.92857 9.88421,-2.05929 14.96487,-2.15248c2.7734,-0.05087 5.20696,-0.29477 7.32454,1.75024c1.542,1.76678 3.12182,3.54956 4.43375,5.49984c0.39324,0.58459 0.49742,1.42385 1.08359,1.81474c0.49473,0.32992 1.17383,-0.24528 1.71455,-0.49271c2.09898,-0.96046 4.40381,-1.61532 6.57185,-2.41056l0.69443,0.81427c0,0 0.99995,0.01031 0.98964,1.01026z" fill="#0a0a0a" stroke="none" stroke-width="0.5" stroke-linecap="butt"/><path d="M110.9783,150.20717c-0.20717,0.9783 -1.18548,0.77113 -1.18548,0.77113l-0.0186,-2.86398c0.70292,-1.51119 1.40584,-3.02237 2.10876,-4.53356c1.37552,-2.44754 0.95778,-6.60161 0.56873,-9.27286c-0.1532,-1.05185 0.10837,-2.94005 -1.03786,-3.37454c-0.89177,-0.33803 -2.1737,0.25125 -3.04825,-0.18628c-0.14235,-0.07122 0.02481,-0.52292 -0.12209,-0.46164c-1.06284,0.44342 -1.39621,1.7873 -2.75448,2.13979c-4.55892,1.18312 -8.768,3.48228 -13.40134,4.14119c-1.98091,0.28171 -4.35859,1.02485 -6.0902,-0.4843c-0.35426,-0.30875 -0.47218,-2.45907 -0.56572,-2.94618c-0.01589,-1.29951 -1.64779,-2.74824 -2.41249,-3.78404c-0.63125,-0.85504 -2.2787,-4.11264 -2.84606,-4.44719c-3.1713,-1.86998 -6.72328,1.48287 -9.48903,2.85056c-5.0396,2.49214 -10.20912,5.71737 -15.57291,7.44015c-1.73102,0.55598 -4.29337,1.17262 -5.52415,-0.35527c-1.53548,-2.28307 -2.59696,-6.34096 -2.64989,-9.09341c-0.02545,-1.32338 -1.19841,-3.39633 -1.02308,-4.48096c0.03286,-0.20327 0.71368,-0.16613 0.547,-0.28704c-0.8805,-0.63871 -5.53645,-0.49175 -6.51345,-0.1146c-1.64399,0.4857 -3.16151,2.31237 -4.46942,3.41603c-3.32676,2.80724 -6.44751,5.77581 -9.85362,8.50069c0,0 -0.78087,0.6247 -1.40556,-0.15617c-0.6247,-0.78087 0.15617,-1.40556 0.15617,-1.40556c4.67298,-3.73838 9.37074,-9.84052 14.85217,-12.22078c1.20858,-0.46654 2.13926,-0.27843 3.40034,-0.17505c0.83799,0.0687 3.26259,-0.31631 3.91526,0.15713c2.87542,2.08579 1.87242,5.86147 2.43226,8.7275c0.22235,1.13827 1.05734,2.25673 1.36747,3.39501c0.24501,0.89924 0.02279,1.89586 0.80185,2.48257c0.20911,0.25959 0.31404,0.6649 0.62732,0.77876c0.17167,0.06239 -0.13817,-0.43826 0.00791,-0.5479c0.2666,-0.20009 0.65396,-0.12952 0.98095,-0.19428c1.32397,-0.26222 2.34072,-0.58953 3.56413,-1.14475c4.54459,-2.06248 8.99928,-4.30269 13.47269,-6.51484c1.75869,-0.86969 4.15516,-2.9887 6.00209,-3.39402c0.81843,-0.17961 3.81263,-0.12494 4.62075,0.35158c2.4654,1.45374 6.26331,7.15924 6.9754,9.83874c0.09353,0.48711 0.21145,2.63743 0.56572,2.94618c0.19113,0.16657 -0.14243,-0.61777 0.06916,-0.75744c0.5065,-0.33434 3.0761,-0.26176 3.77533,-0.3612c4.54012,-0.64566 8.69582,-2.93312 13.18053,-4.09698c0.72553,-0.18829 1.01348,-1.17724 1.70525,-1.46585c0.86889,-0.3625 3.80581,-0.46787 4.80704,-0.08835c4.65357,1.76397 3.74807,11.77784 2.19747,15.4891c-0.70292,1.51119 -1.40584,3.02237 -2.10876,4.53356l-1.38048,0.06386c0,0 0.9783,0.20717 0.77113,1.18548z" fill="#0a0a0a" stroke="none" stroke-width="0.5" stroke-linecap="butt"/><path d="M132.95358,160.69887c0.30113,0.95358 -0.65245,1.25471 -0.65245,1.25471l-0.68183,0.13908c-6.87151,1.33505 -13.74302,2.6701 -20.61453,4.00515c-3.58463,0.68802 -7.37602,2.59139 -11.02101,2.73534c-1.21714,0.04807 -2.47111,-0.63583 -3.68078,-0.69587c-2.30392,-0.11436 -4.53346,0.90244 -6.90427,0.97798c-2.43219,0.01874 -5.49143,2.0255 -7.82694,0.70014c-0.02667,-0.01513 -0.92702,-2.21471 -1.05936,-2.38485c-2.75102,-3.53693 -4.13549,-5.46604 -8.73711,-5.34633c-1.60233,-0.15181 -3.72517,1.31176 -5.19545,1.96111c-3.38013,1.49283 -6.77972,2.85638 -10.23546,4.16416c-1.73575,0.65687 -3.58514,1.773 -5.40101,1.02304c-2.07286,-0.97811 -4.55109,-0.86994 -6.72366,-1.86673c-1.3248,-0.60783 -3.02658,-0.73394 -4.12587,-1.19893c-0.20706,-0.08758 -0.00727,-0.81264 -0.16623,-0.65366c-0.47139,0.47142 -0.22157,1.3148 -0.33235,1.97219c-0.39059,2.31782 -0.80611,4.61979 -1.29057,6.91991c-0.75439,3.58169 -1.46477,7.09072 -1.86909,10.72958c-0.03232,0.29084 -0.03312,2.08941 -0.42041,2.87017c0.70286,0.23405 1.46153,0.47166 1.9848,0.99494c0.09967,0.09967 0.1572,0.21681 0.18594,0.34586l0.56428,0.26247l-0.82342,1.77024c-0.10179,0.28308 -0.34512,0.62143 -0.9268,0.62143c-0.59541,0 -0.8363,-0.35451 -0.93377,-0.64137c-0.04278,-0.11132 -0.06623,-0.23224 -0.06623,-0.35863c0,-0.30695 0,-0.75524 0,-1.14964c-0.0628,0.51856 -0.28936,0.94361 -1,0.14964c-0.50736,-0.56685 -0.69929,-1.3662 -0.88345,-2.10432c-0.25823,-1.03496 0.32268,-2.90412 0.44173,-3.97553c0.37342,-3.36079 1.09276,-6.61971 1.78936,-9.92704c0.47891,-2.27374 0.88932,-4.54881 1.27544,-6.84005c0.11078,-0.6574 -0.13904,-1.50077 0.33235,-1.97219c2.76064,-2.76084 6.1538,0.30481 8.91612,1.20115c1.5922,0.51665 3.2507,0.39984 4.83529,1.00196c1.41511,0.58444 4.15344,-1.1297 5.80022,-1.7529c4.39608,-1.66364 9.57081,-5.1722 14.21625,-5.54618c5.20923,-0.13552 7.29949,2.17288 10.36781,6.11775c0.44518,0.57236 0.94854,2.75598 1.38581,3.00412c0.26675,0.15137 -0.37899,-0.64351 -0.20598,-0.89677c0.55688,-0.81518 5.10195,-1.14742 6.06408,-1.19373c2.33286,-0.07434 4.52744,-1.08609 6.81035,-0.97278c1.3735,0.06818 2.82741,0.7752 4.1927,0.72128c3.26403,-0.1289 7.02302,-2.0897 10.28527,-2.73026c6.87151,-1.33505 13.74302,-2.6701 20.61453,-4.00515l0.46101,-0.08296c0,0 0.95358,-0.30113 1.25471,0.65245z" fill="#0a0a0a" stroke="none" stroke-width="0.5" stroke-linecap="butt"/></g></g></svg>